<svg width="14" height="14" viewBox="0 0 14 14" fill="none" xmlns="http://www.w3.org/2000/svg">
<path fill-rule="evenodd" clip-rule="evenodd" d="M4.82843 0C4.03278 0 3.26972 0.316071 2.70711 0.87868L0.87868 2.70711C0.31607 3.26972 0 4.03278 0 4.82843V11C0 12.6569 1.34315 14 3 14H11C12.6569 14 14 12.6569 14 11V4.82843C14 4.03278 13.6839 3.26972 13.1213 2.70711L11.2929 0.87868C10.7303 0.31607 9.96722 0 9.17157 0H4.82843ZM4.12132 2.29289C4.30886 2.10536 4.56321 2 4.82843 2H9.17157C9.43679 2 9.69114 2.10536 9.87868 2.29289L11.7071 4.12132C11.8946 4.30886 12 4.56321 12 4.82843V11C12 11.5523 11.5523 12 11 12H3C2.44772 12 2 11.5523 2 11V4.82843C2 4.56321 2.10536 4.30886 2.29289 4.12132L4.12132 2.29289ZM3.74076 6.69064C4.10018 6.27131 4.73148 6.22275 5.15081 6.58217L6.00002 7.16721V4.34143C6.00002 3.78915 6.44773 3.34143 7.00002 3.34143C7.5523 3.34143 8.00002 3.78915 8.00002 4.34143V7.16721L8.84923 6.58217C9.26855 6.22275 9.89985 6.27131 10.2593 6.69064C10.6187 7.10997 10.5701 7.74126 10.1508 8.10069L7.00002 10.6585L3.84923 8.10069C3.4299 7.74126 3.38134 7.10996 3.74076 6.69064Z" fill="#333333"/>
</svg>
