<svg width="16" height="15" viewBox="0 0 16 15" fill="none" xmlns="http://www.w3.org/2000/svg">
<path fill-rule="evenodd" clip-rule="evenodd" d="M0 1C0 0.447715 0.447715 0 1 0H3C3.48884 0 3.90603 0.353413 3.98639 0.835601L4.18046 2H15C15.5523 2 16 2.44772 16 3V6.85094C16 8.11738 15.0875 9.19958 13.8393 9.41356L4.96492 10.9352C4.91434 10.9438 4.864 10.9485 4.81422 10.9495C4.76603 10.9654 4.71601 10.9778 4.6644 10.9864C4.11963 11.0772 3.6044 10.7092 3.51361 10.1644L2.15287 2H1C0.447715 2 0 1.55228 0 1ZM5.32127 8.84486L4.51379 4H14V6.85094C14 7.1432 13.7894 7.39294 13.5014 7.44232L5.32127 8.84486ZM7 13.5C7 14.3284 6.32843 15 5.5 15C4.67157 15 4 14.3284 4 13.5C4 12.6716 4.67157 12 5.5 12C6.32843 12 7 12.6716 7 13.5ZM14 13.5C14 14.3284 13.3284 15 12.5 15C11.6716 15 11 14.3284 11 13.5C11 12.6716 11.6716 12 12.5 12C13.3284 12 14 12.6716 14 13.5Z" fill="#F94CA3"/>
</svg>
