<svg width="16" height="15" viewBox="0 0 16 15" fill="none" xmlns="http://www.w3.org/2000/svg">
<path d="M14.828 1.58722C13.2659 0.0251251 10.7332 0.0251251 9.1711 1.58722L9.08199 1.67633C9.36617 1.84417 9.63404 2.05016 9.87821 2.29433C10.1224 2.53849 10.3284 2.80637 10.4962 3.09054L10.5853 3.00144C11.3664 2.22039 12.6327 2.22039 13.4137 3.00144C14.1948 3.78248 14.1948 5.04881 13.4137 5.82986L7.12132 12.1223C5.94975 13.2939 4.05025 13.2939 2.87868 12.1223C1.70711 10.9507 1.70711 9.05123 2.87868 7.87966L6.34272 4.41565C6.73324 4.02513 7.36641 4.02513 7.75693 4.41565C8.14745 4.80617 8.14745 5.43934 7.75693 5.82986L5.0503 8.5365C4.65977 8.92702 4.65977 9.56018 5.0503 9.95071C5.44082 10.3412 6.07399 10.3412 6.46451 9.95071L9.17114 7.24408C10.3427 6.0725 10.3427 4.17301 9.17114 3.00144C7.99957 1.82986 6.10008 1.82986 4.9285 3.00144L1.46447 6.46544C-0.488155 8.41807 -0.488155 11.5839 1.46447 13.5365C3.41709 15.4891 6.58291 15.4891 8.53553 13.5365L14.828 7.24408C16.3901 5.68198 16.3901 3.14932 14.828 1.58722Z" fill="#2C2D2E"/>
</svg>
