<?xml version="1.0" standalone="no"?>
<!DOCTYPE svg PUBLIC "-//W3C//DTD SVG 20010904//EN"
 "http://www.w3.org/TR/2001/REC-SVG-20010904/DTD/svg10.dtd">
<svg version="1.0" xmlns="http://www.w3.org/2000/svg"
 width="20" height="20" viewBox="0 0 512.000000 512.000000"
 preserveAspectRatio="xMidYMid meet">

<g transform="translate(0.000000,512.000000) scale(0.100000,-0.100000)"
fill="#000000" stroke="none">
<path d="M2406 4110 c-235 -37 -479 -166 -632 -333 -63 -69 -139 -179 -168
-245 l-19 -42 -112 0 c-136 0 -262 -21 -361 -59 -217 -84 -406 -268 -493 -480
-32 -76 -61 -184 -61 -224 0 -23 -7 -31 -46 -47 -249 -107 -450 -368 -499
-645 -79 -455 190 -875 645 -1008 l75 -22 1784 -3 c1567 -2 1796 -1 1874 13
338 58 607 309 700 650 31 114 31 316 0 431 -70 259 -248 475 -478 580 -46 21
-55 30 -55 52 0 39 -29 147 -61 223 -86 211 -277 396 -493 480 -99 38 -225 59
-361 59 l-112 0 -19 42 c-29 66 -105 176 -168 245 -128 140 -331 260 -523 309
-110 28 -314 40 -417 24z m364 -320 c247 -70 426 -244 527 -510 l32 -85 238
-6 c171 -4 251 -10 283 -21 99 -33 166 -74 241 -148 127 -125 178 -255 179
-452 l0 -97 43 -11 c164 -41 251 -86 336 -171 175 -176 218 -438 110 -665 -46
-95 -168 -217 -263 -263 -134 -64 -32 -61 -1932 -61 -1201 0 -1748 3 -1790 11
-32 6 -97 28 -143 50 -108 51 -220 159 -270 263 -108 226 -64 493 110 667 81
81 175 128 337 169 l42 11 0 97 c1 195 48 319 170 443 75 77 138 116 245 155
41 14 94 19 289 23 l238 6 28 76 c109 301 321 485 617 539 76 14 248 4 333
-20z"/>
</g>
</svg>
