<?xml version="1.0" standalone="no"?>
<!DOCTYPE svg PUBLIC "-//W3C//DTD SVG 20010904//EN"
 "http://www.w3.org/TR/2001/REC-SVG-20010904/DTD/svg10.dtd">
<svg version="1.0" xmlns="http://www.w3.org/2000/svg"
 width="20" height="20" viewBox="0 0 512.000000 512.000000"
 preserveAspectRatio="xMidYMid meet">

<g transform="translate(0.000000,512.000000) scale(0.100000,-0.100000)"
fill="#000000" stroke="none">
<path d="M80 2667 c-40 -14 -80 -67 -80 -107 0 -42 40 -93 84 -108 30 -10 543
-12 2496 -10 l2459 3 28 21 c15 11 34 38 42 60 12 34 11 44 -2 76 -8 20 -28
45 -43 55 -27 17 -124 18 -2489 20 -1889 1 -2468 -1 -2495 -10z"/>
</g>
</svg>
