<svg width="14" height="14" viewBox="0 0 14 14" fill="none" xmlns="http://www.w3.org/2000/svg">
<path fill-rule="evenodd" clip-rule="evenodd" d="M4.15081 5.24099C3.73148 4.88157 3.10018 4.93013 2.74076 5.34945C2.38134 5.76878 2.4299 6.40008 2.84923 6.7595L7.00002 10.3173L11.1508 6.7595C11.5701 6.40008 11.6187 5.76878 11.2593 5.34945C10.8999 4.93013 10.2686 4.88157 9.84923 5.24099L8.00002 6.82602V1.00024C8.00002 0.447959 7.5523 0.000244141 7.00002 0.000244141C6.44773 0.000244141 6.00002 0.447959 6.00002 1.00024V6.82602L4.15081 5.24099ZM1 12.0002C0.447715 12.0002 0 12.448 0 13.0002C0 13.5525 0.447715 14.0002 1 14.0002H13C13.5523 14.0002 14 13.5525 14 13.0002C14 12.448 13.5523 12.0002 13 12.0002H1Z" fill="#2C2D2E"/>
</svg>
