<?xml version="1.0" standalone="no"?>
<!DOCTYPE svg PUBLIC "-//W3C//DTD SVG 20010904//EN"
 "http://www.w3.org/TR/2001/REC-SVG-20010904/DTD/svg10.dtd">
<svg version="1.0" xmlns="http://www.w3.org/2000/svg"
 width="20" height="20" viewBox="0 0 512.000000 512.000000"
 preserveAspectRatio="xMidYMid meet">

<g transform="translate(0.000000,512.000000) scale(0.100000,-0.100000)"
fill="#000000" stroke="none">
<path d="M3455 5106 c-94 -41 -124 -168 -58 -247 51 -60 41 -59 640 -59 l548
0 -865 -865 -865 -865 113 -112 112 -113 860 860 859 859 3 -551 c3 -539 3
-552 24 -579 39 -53 71 -69 134 -69 63 0 95 16 134 69 21 27 21 35 21 804 l0
777 -23 32 c-12 17 -42 41 -65 52 -43 21 -53 21 -793 21 -600 -1 -755 -3 -779
-14z"/>
<path d="M1180 1415 l-855 -855 -5 549 c-5 535 -6 550 -26 577 -39 53 -71 69
-134 69 -63 0 -95 -16 -134 -69 -21 -27 -21 -38 -24 -792 -3 -859 -7 -811 71
-862 l41 -27 772 0 c765 0 773 0 800 21 53 39 69 71 69 134 0 63 -16 95 -69
134 -27 21 -40 21 -589 24 l-561 2 864 865 865 865 -110 110 c-60 60 -112 110
-115 110 -3 0 -390 -385 -860 -855z"/>
</g>
</svg>
