<?xml version="1.0" standalone="no"?>
<!DOCTYPE svg PUBLIC "-//W3C//DTD SVG 20010904//EN"
 "http://www.w3.org/TR/2001/REC-SVG-20010904/DTD/svg10.dtd">
<svg version="1.0" xmlns="http://www.w3.org/2000/svg"
 width="20" height="20" viewBox="0 0 512.000000 512.000000"
 preserveAspectRatio="xMidYMid meet">

<g transform="translate(0.000000,512.000000) scale(0.100000,-0.100000)"
fill="#000000" stroke="none">
<path d="M782 5103 c-43 -21 -79 -65 -92 -112 -7 -26 -9 -813 -8 -2452 3
-2277 4 -2416 20 -2446 10 -18 35 -45 55 -60 l36 -28 1767 0 1767 0 36 28 c20
15 45 42 55 60 16 30 17 143 17 1950 l0 1917 -580 580 -580 580 -1230 0
c-1112 0 -1233 -2 -1263 -17z m2378 -680 c1 -399 4 -532 13 -544 29 -38 43
-39 576 -39 l521 0 0 -1835 0 -1835 -1710 0 -1710 0 0 2390 0 2390 1155 0
1155 0 0 -527z m580 -8 l405 -405 -408 0 -407 0 0 405 c0 223 1 405 3 405 1 0
184 -182 407 -405z"/>
</g>
</svg>
