<svg width="16" height="16" viewBox="0 0 16 16" fill="none" xmlns="http://www.w3.org/2000/svg">
<path fill-rule="evenodd" clip-rule="evenodd" d="M9.00006 1C9.00006 1.55228 8.55235 2 8.00006 2C7.44778 2 7.00006 1.55228 7.00006 1C7.00006 0.447715 7.44778 0 8.00006 0C8.55235 0 9.00006 0.447715 9.00006 1ZM8.93337 10.8626C8.85751 11.4097 9.23947 11.9146 9.78652 11.9905C10.6477 12.1099 10.9201 12.5566 10.9822 12.8302C11.0615 13.1793 10.8944 13.2588 10.8743 13.2668L8.00006 13.9705L5.12585 13.2668C5.10573 13.2588 4.93867 13.1793 5.01793 12.8302C5.08004 12.5566 5.35247 12.1099 6.2136 11.9905C6.76065 11.9146 7.14262 11.4097 7.06675 10.8626C6.99273 10.3289 6.51026 9.95232 5.97876 10.0047C5.94651 10.0016 5.91381 10 5.88074 10C5.72797 10 5.29159 9.9567 4.74305 9.80364C4.20168 9.65257 3.61717 9.41259 3.12956 9.06083C2.64922 8.7143 2.28835 8.27954 2.11596 7.72485C1.94406 7.1717 1.92386 6.38439 2.33265 5.26634C2.39201 5.10399 2.40765 4.93097 2.38073 4.76389L3.44571 5.41009C3.66503 5.54337 3.78342 5.66773 3.85628 5.79545C3.92953 5.92386 4.00007 6.13175 4.00007 6.5C4.00007 7.05228 4.44779 7.5 5.00007 7.5C5.55235 7.5 6.00007 7.05228 6.00007 6.5C6.00007 5.86825 5.8763 5.30022 5.5935 4.80446C5.31035 4.30809 4.91063 3.95987 4.48321 3.70024L1.92021 2.14508C1.68704 2.00359 1.4062 1.96349 1.14274 2.03405C0.879288 2.10462 0.656088 2.27973 0.524849 2.51882C0.0985538 3.29543 0.0526824 4.18747 0.323253 4.96481C-0.0752773 6.23368 -0.094492 7.35123 0.20607 8.31839C0.536213 9.38073 1.21651 10.1468 1.95944 10.6828C2.44009 11.0296 2.95711 11.2881 3.45012 11.4794C3.26882 11.7605 3.14025 12.0672 3.06757 12.3874C2.82408 13.4598 3.25961 14.8379 4.61069 15.1995L4.63143 15.2048L7.74324 15.9667C7.82601 15.9887 7.91226 16.0003 8.00006 16.0002C8.08786 16.0003 8.17411 15.9887 8.25689 15.9667L11.3687 15.2048L11.3894 15.1995C12.7405 14.8379 13.176 13.4598 12.9326 12.3874C12.8566 12.0529 12.7197 11.7332 12.5254 11.4419C12.9896 11.2547 13.4714 11.0074 13.9214 10.6828C14.6643 10.1468 15.3446 9.38073 15.6747 8.31839C15.9753 7.35123 15.9561 6.23368 15.5575 4.96481C15.8281 4.18747 15.7822 3.29543 15.3559 2.51882C15.2247 2.27973 15.0015 2.10462 14.7381 2.03405C14.4746 1.96349 14.1938 2.00359 13.9606 2.14508L11.3976 3.70024C10.9702 3.95987 10.5705 4.30809 10.2873 4.80446C10.0045 5.30022 9.88073 5.86825 9.88073 6.5C9.88073 7.05228 10.3284 7.5 10.8807 7.5C11.433 7.5 11.8807 7.05228 11.8807 6.5C11.8807 6.13175 11.9513 5.92386 12.0245 5.79545C12.0974 5.66773 12.2158 5.54337 12.4351 5.41009L13.5001 4.76389C13.4732 4.93097 13.4888 5.10399 13.5481 5.26634C13.9569 6.38439 13.9367 7.1717 13.7648 7.72485C13.5925 8.27954 13.2316 8.7143 12.7512 9.06083C12.2636 9.41259 11.6791 9.65257 11.1377 9.80364C10.5892 9.9567 10.1528 10 10.0001 10C9.98759 10 9.97517 10.0002 9.9628 10.0007C9.45485 9.9803 9.00467 10.3486 8.93337 10.8626ZM5.60564 3.05276C5.85263 2.55878 6.4533 2.35856 6.94728 2.60555C7.29878 2.7813 7.67197 2.98149 8.00006 3.24827C8.32816 2.98149 8.70135 2.7813 9.05285 2.60555C9.54683 2.35856 10.1475 2.55878 10.3945 3.05276C10.6415 3.54674 10.4413 4.14741 9.94727 4.3944C9.4498 4.64314 9.24665 4.78964 9.14268 4.91417C9.08161 4.98731 9.00068 5.11281 9.00006 5.49554C9.00006 5.49702 9.00007 5.4985 9.00007 5.49998C9.00007 6.05226 8.55235 6.49997 8.00007 6.49997C7.96555 6.49997 7.93144 6.49823 7.89782 6.49481C7.69721 6.47444 7.51413 6.39477 7.36638 6.2736C7.14275 6.09021 7.00006 5.81176 7.00006 5.49998C7.00006 5.4985 7.00006 5.49702 7.00006 5.49554C6.99944 5.11281 6.91852 4.98731 6.85745 4.91417C6.75348 4.78964 6.55033 4.64314 6.05285 4.3944C5.55887 4.14741 5.35865 3.54674 5.60564 3.05276Z" fill="#EE3C3C"/>
</svg>
