<svg width="16" height="16" viewBox="0 0 16 16" fill="none" xmlns="http://www.w3.org/2000/svg">
<path fill-rule="evenodd" clip-rule="evenodd" d="M11.6569 2.92897C10.4853 1.7574 8.58583 1.7574 7.41425 2.92897L5.29293 5.05029C4.90241 5.44082 4.90241 6.07398 5.29293 6.46451L6.00004 7.17161C6.18758 7.35915 6.29293 7.6135 6.29293 7.87872C6.29293 8.14394 6.18758 8.39829 6.00004 8.58583L2.05029 12.5356V13.9498H3.62394L7.39982 10.0148C7.58592 9.82083 7.84226 9.70997 8.11104 9.7072C8.37982 9.70443 8.6384 9.80997 8.82847 10L9.53557 10.7071C9.9261 11.0977 10.5593 11.0977 10.9498 10.7071L13.0711 8.58583C14.2427 7.41425 14.2427 5.51476 13.0711 4.34319L11.6569 2.92897ZM6.00004 1.51476C7.95266 -0.437862 11.1185 -0.437862 13.0711 1.51476L14.4853 2.92897C16.4379 4.88159 16.4379 8.04742 14.4853 10L12.364 12.1214C11.1973 13.288 9.30887 13.2929 8.13615 12.1361L4.77184 15.6422C4.58326 15.8387 4.32267 15.9498 4.05029 15.9498H1.05029C0.498008 15.9498 0.050293 15.5021 0.050293 14.9498V12.1214C0.050293 11.8561 0.15565 11.6018 0.343186 11.4143L3.87872 7.87872C2.70715 6.70715 2.70715 4.80765 3.87872 3.63608L6.00004 1.51476ZM8.82843 4.34326C9.21896 3.95273 9.85212 3.95273 10.2426 4.34326L11.6569 5.75747C12.0474 6.14799 12.0474 6.78116 11.6569 7.17168C11.2663 7.56221 10.6332 7.56221 10.2426 7.17168L8.82843 5.75747C8.43791 5.36694 8.43791 4.73378 8.82843 4.34326Z" fill="#EEAC2C"/>
</svg>
