<svg width="14" height="16" viewBox="0 0 14 16" fill="none" xmlns="http://www.w3.org/2000/svg">
<path d="M10 5C10 5.55228 9.55229 6 9 6H5C4.44771 6 4 5.55228 4 5C4 4.44772 4.44771 4 5 4H9C9.55229 4 10 4.44772 10 5Z" fill="#333333"/>
<path d="M9 9C9.55229 9 10 8.55229 10 8C10 7.44772 9.55229 7 9 7H5C4.44771 7 4 7.44772 4 8C4 8.55229 4.44771 9 5 9H9Z" fill="#333333"/>
<path d="M7 12C7.55228 12 8 11.5523 8 11C8 10.4477 7.55228 10 7 10H5C4.44771 10 4 10.4477 4 11C4 11.5523 4.44771 12 5 12H7Z" fill="#333333"/>
<path fill-rule="evenodd" clip-rule="evenodd" d="M0 13C0 14.6569 1.34315 16 3 16H11C12.6569 16 14 14.6569 14 13V3C14 1.34315 12.6569 0 11 0H3C1.34315 0 0 1.34315 0 3V13ZM3 14C2.44772 14 2 13.5523 2 13V3C2 2.44771 2.44772 2 3 2H11C11.5523 2 12 2.44772 12 3V13C12 13.5523 11.5523 14 11 14H3Z" fill="#333333"/>
</svg>
