<svg width="33" height="32" viewBox="0 0 33 32" fill="none" xmlns="http://www.w3.org/2000/svg">
<path fill-rule="evenodd" clip-rule="evenodd" d="M16.1082 0C7.22607 0 0 7.17755 0 15.9999C0 24.8224 7.22607 32 16.1082 32C19.3737 32 22.5215 31.023 25.1816 29.2171L23.0703 26.7791C21.0061 28.098 18.6003 28.8099 16.1082 28.8099C8.99694 28.8099 3.21167 23.0635 3.21167 15.9999C3.21167 8.93643 8.99694 3.19 16.1082 3.19C23.2195 3.19 29.0048 8.93643 29.0048 15.9999C29.0048 16.9301 28.8996 17.855 28.7009 18.7547C28.2875 20.4386 27.1055 20.9594 26.1973 20.8889C25.3018 20.8173 24.2379 20.1831 24.231 18.617V15.9999C24.231 11.5512 20.587 7.93174 16.1082 7.93174C11.6295 7.93174 7.98536 11.5512 7.98536 15.9999C7.98536 20.4489 11.6295 24.0683 16.1082 24.0683C18.378 24.0683 20.4322 23.1375 21.9075 21.6416C22.7763 23.0197 24.2149 23.9311 25.9399 24.0688C26.0838 24.0802 26.2274 24.0859 26.3706 24.0859C27.5394 24.0859 28.6792 23.7067 29.6196 22.9975C30.5903 22.2656 31.2969 21.2253 31.693 19.9668C31.7563 19.7658 31.8724 19.3001 31.8737 19.2939C32.1378 18.158 32.2164 17.1099 32.2164 15.9999C32.2164 7.17755 24.9902 0 16.1082 0ZM11.197 15.9999C11.197 13.3102 13.4003 11.1218 16.1082 11.1218C18.8162 11.1218 21.0193 13.3102 21.0193 15.9999C21.0193 18.6898 18.8162 20.8782 16.1082 20.8782C13.4003 20.8782 11.197 18.6898 11.197 15.9999Z" fill="#FF9E00"/>
</svg>
