<svg width="55" height="22" viewBox="0 0 55 22" fill="none" xmlns="http://www.w3.org/2000/svg">
<path fill-rule="evenodd" clip-rule="evenodd" d="M41.7329 21.4785H38.7109V20.3741C37.5433 21.3884 36.0179 21.9926 34.2233 21.9926C29.9317 21.9926 26.4475 18.5371 26.4475 14.2809C26.4475 10.0247 29.9317 6.56924 34.2233 6.56924C36.0179 6.56924 37.5433 7.17343 38.7109 8.18773V7.0833H41.7329V21.4785ZM3.37059 21.4785H0.348633V7.0834H3.37059V7.88276C4.04171 7.257 5.30475 6.57136 6.87174 6.56924C8.88418 6.56924 10.6863 7.47819 11.8838 8.90351C13.0814 7.47819 14.8835 6.56924 16.8959 6.56924C20.4927 6.56924 23.419 9.4714 23.419 13.0385V21.4785H20.397V13.0385C20.397 11.1241 18.8263 9.56637 16.8959 9.56637C14.9653 9.56637 13.3949 11.1241 13.3949 13.0385V21.4785H10.3728V13.0385C10.3728 11.1241 8.80215 9.56637 6.87174 9.56637C4.94124 9.56637 3.37059 11.1241 3.37059 13.0385V21.4785ZM45.3443 21.4785H48.3663V7.08339H45.3443V21.4785ZM51.978 21.4785H55V0.914018H51.978V21.4785ZM34.2233 9.52594C36.8694 9.52594 38.9546 11.6566 38.9546 14.2809C38.9546 16.9052 36.8694 19.0358 34.2233 19.0358C31.5771 19.0358 29.4288 16.9052 29.4288 14.2809C29.4288 11.6566 31.5771 9.52594 34.2233 9.52594ZM46.8577 0.399872C48.0033 0.399872 48.9334 1.32233 48.9334 2.45841C48.9334 3.5946 48.0033 4.51705 46.8577 4.51705C45.7121 4.51705 44.782 3.5946 44.782 2.45841C44.782 1.32233 45.7121 0.399872 46.8577 0.399872Z" fill="#005FF9"/>
</svg>
