<svg width="16" height="14" viewBox="0 0 16 14"  xmlns="http://www.w3.org/2000/svg">
<path d="M3.29289 8.54289C2.90237 8.93342 2.90237 9.56658 3.29289 9.95711C3.68342 10.3476 4.31658 10.3476 4.70711 9.95711L6.44557 8.21864L7.3415 9.00258C7.71852 9.33247 8.28148 9.33247 8.6585 9.00258L9.55443 8.21864L11.2929 9.95711C11.6834 10.3476 12.3166 10.3476 12.7071 9.95711C13.0976 9.56658 13.0976 8.93342 12.7071 8.54289L11.0629 6.89871L12.6585 5.50258C13.0741 5.13889 13.1163 4.50713 12.7526 4.0915C12.3889 3.67586 11.7571 3.63374 11.3415 3.99742L8 6.92123L4.6585 3.99742C4.24287 3.63374 3.61111 3.67586 3.24742 4.0915C2.88374 4.50713 2.92586 5.13889 3.3415 5.50258L4.93708 6.89871L3.29289 8.54289Z" />
<path  clip-rule="evenodd" d="M0 3C0 1.34315 1.34315 0 3 0H13C14.6569 0 16 1.34315 16 3V11C16 12.6569 14.6569 14 13 14H3C1.34315 14 0 12.6569 0 11V3ZM3 2C2.44772 2 2 2.44772 2 3V11C2 11.5523 2.44772 12 3 12H13C13.5523 12 14 11.5523 14 11V3C14 2.44772 13.5523 2 13 2H3Z" />
</svg>
