<svg  width="20" xmlns="http://www.w3.org/2000/svg" height="20" viewBox="0 0 20 20"><path fill-rule="evenodd" clip-rule="evenodd" d="M6 2c-1.10457 0-2 .89543-2 2v4c0 .55228.44772 1 1 1s1-.44772 1-1V4h3.38197l.72363 1.44721L10.382 6H15c.5523 0 1 .44772 1 1v6c0 .5523-.4477 1-1 1h-3.5c-.5523 0-1 .4477-1 1s.4477 1 1 1H15c1.6569 0 3-1.3431 3-3V7c0-1.65685-1.3431-3-3-3h-3.382l-.4472-.89443C10.832 2.428 10.1395 2 9.38197 2H6zm-.65079 15.7592c-.41933-.3594-.46789-.9907-.10847-1.41l.58504-.8492H3c-.55229 0-1-.4477-1-1s.44771-1 1-1h2.82578l-.58504-.8492c-.35942-.4194-.31086-1.0507.10847-1.4101.41932-.3594 1.05062-.3108 1.41005.1085L9.31708 14.5l-2.55782 3.1508c-.35943.4193-.99073.4679-1.41005.1084z"></path></svg>