<svg width="20" xmlns="http://www.w3.org/2000/svg" height="20" viewBox="0 0 20 20"><path d="M5 2C3.34315 2 2 3.34315 2 5v9c0 1.6569 1.34315 3 3 3h4c.55228 0 1-.4477 1-1s-.44772-1-1-1H5c-.55228 0-1-.4477-1-1V5c0-.55228.44772-1 1-1h10c.5523 0 1 .44772 1 1v3.33333c0 .55229.4477 1 1 1s1-.44771 1-1V5c0-1.65685-1.3431-3-3-3H5z"></path><path d="M15 11c-.5523 0-1 .4477-1 1v1h-1c-.5523 0-1 .4477-1 1s.4477 1 1 1h1v1c0 .5523.4477 1 1 1s1-.4477 1-1v-1h1c.5523 0 1-.4477 1-1s-.4477-1-1-1h-1v-1c0-.5523-.4477-1-1-1zM5 6c0 .55228.44772 1 1 1h2c.55229 0 1-.44772 1-1s-.44771-1-1-1H6c-.55228 0-1 .44772-1 1z"></path></svg>