<svg width="56" height="56" viewBox="0 0 56 56" xmlns="http://www.w3.org/2000/svg">
<path fill-rule="evenodd" clip-rule="evenodd" d="M25 3.5C13.1259 3.5 3.5 13.1259 3.5 25C3.5 36.8741 13.1259 46.5 25 46.5C36.8741 46.5 46.5 36.8741 46.5 25C46.5 13.1259 36.8741 3.5 25 3.5ZM0.5 25C0.5 11.469 11.469 0.5 25 0.5C38.531 0.5 49.5 11.469 49.5 25C49.5 38.531 38.531 49.5 25 49.5C11.469 49.5 0.5 38.531 0.5 25Z" fill="#2C2D2E"/>
<path fill-rule="evenodd" clip-rule="evenodd" d="M40.9393 40.9393C41.5251 40.3536 42.4749 40.3536 43.0607 40.9393L55.0607 52.9393C55.6464 53.5251 55.6464 54.4749 55.0607 55.0607C54.4749 55.6464 53.5251 55.6464 52.9393 55.0607L40.9393 43.0607C40.3536 42.4749 40.3536 41.5251 40.9393 40.9393Z" fill="#2C2D2E"/>
<path fill-rule="evenodd" clip-rule="evenodd" d="M17.4393 17.9393C18.0251 17.3536 18.9749 17.3536 19.5607 17.9393L31.5607 29.9393C32.1464 30.5251 32.1464 31.4749 31.5607 32.0607C30.9749 32.6464 30.0251 32.6464 29.4393 32.0607L17.4393 20.0607C16.8536 19.4749 16.8536 18.5251 17.4393 17.9393Z" fill="#2C2D2E"/>
<path fill-rule="evenodd" clip-rule="evenodd" d="M31.5607 17.9393C30.9749 17.3536 30.0251 17.3536 29.4393 17.9393L17.4393 29.9393C16.8536 30.5251 16.8536 31.4749 17.4393 32.0607C18.0251 32.6464 18.9749 32.6464 19.5607 32.0607L31.5607 20.0607C32.1464 19.4749 32.1464 18.5251 31.5607 17.9393Z" fill="#2C2D2E"/>
</svg>
