<svg width="16" height="16" viewBox="0 0 16 16" fill="none" xmlns="http://www.w3.org/2000/svg">
<path fill-rule="evenodd" clip-rule="evenodd" d="M10.8646 0.89284C12.0361 -0.278732 13.9356 -0.278734 15.1072 0.892839C16.2788 2.06441 16.2788 3.96391 15.1072 5.13548L12.7169 7.52574L14.7555 12.0106C15.1243 12.8219 14.9511 13.7769 14.3209 14.4071C13.4489 15.2791 12.0219 15.2346 11.206 14.3098L8.73419 11.5085L8.12927 12.1134L8.35255 13.3787C8.47851 14.0925 8.24829 14.8228 7.73576 15.3354C6.71393 16.3572 5.00388 16.1467 4.26039 14.9075L3.07244 12.9276L1.09253 11.7397C-0.146622 10.9962 -0.357138 9.28611 0.664689 8.26428C1.17722 7.75175 1.90758 7.52153 2.62137 7.64749L3.88662 7.87077L4.49154 7.26585L1.69025 4.79413C0.765517 3.97818 0.720967 2.5512 1.59301 1.67917C2.22319 1.04898 3.17819 0.875805 3.98952 1.24459L8.47428 3.28312L10.8646 0.89284ZM13.693 2.30705C13.3025 1.91653 12.6693 1.91653 12.2788 2.30705L9.39847 5.18736C9.10371 5.48211 8.65704 5.56311 8.27756 5.39062L3.16192 3.06533C3.10955 3.04152 3.0479 3.0527 3.00722 3.09338C2.95093 3.14967 2.9538 3.24178 3.0135 3.29445L6.61295 6.47044C6.81994 6.65308 6.94223 6.91316 6.95084 7.18908C6.95946 7.46499 6.85363 7.73219 6.65844 7.92739L4.93268 9.65315C4.70194 9.88388 4.37314 9.98753 4.05179 9.93082L2.2738 9.61706C2.2027 9.60451 2.12995 9.62745 2.0789 9.6785C1.97712 9.78028 1.99809 9.95061 2.12152 10.0247L4.3158 11.3412C4.45655 11.4257 4.57435 11.5435 4.6588 11.6842L5.97537 13.8785C6.04943 14.002 6.21976 14.0229 6.32154 13.9211C6.37259 13.8701 6.39553 13.7973 6.38298 13.7262L6.06922 11.9483C6.01251 11.6269 6.11616 11.2981 6.34689 11.0674L8.07265 9.3416C8.26785 9.1464 8.53505 9.04058 8.81097 9.04919C9.08688 9.05781 9.34696 9.18009 9.5296 9.38708L12.7056 12.9866C12.7583 13.0463 12.8504 13.0492 12.9067 12.9929C12.9474 12.9522 12.9586 12.8905 12.9348 12.8382L10.6094 7.72246C10.437 7.34298 10.5179 6.8963 10.8127 6.60155L13.693 3.72127C14.0835 3.33074 14.0835 2.69758 13.693 2.30705Z" fill="#C15DF3"/>
</svg>
