<svg width="16" height="16" viewBox="0 0 16 16" xmlns="http://www.w3.org/2000/svg" class="base-0-2-1" ie-style=""><path fill-rule="evenodd" clip-rule="evenodd" d="M8.85464 1.97227c1.42846-1.4285 3.74456-1.4285 5.17306 0 1.4285 1.42849 1.4285 3.74454 0 5.17304l-2.1479 2.1479c-.3905.39052-1.0237.39052-1.4142 0-.3906-.39052-.3906-1.02369 0-1.41421l2.1479-2.14791c.6474-.64744.6474-1.69716 0-2.34461-.6475-.64745-1.6972-.64745-2.3446 0l-2.14795 2.1479c-.39053.39053-1.02369.39053-1.41422 0-.39052-.39052-.39052-1.02369 0-1.41421l2.14791-2.1479zm2.22556 2.94746c.3906.39052.3906 1.02369 0 1.41421L6.33399 11.0802c-.39052.3905-1.02368.3905-1.41421 0-.39052-.3905-.39052-1.0237 0-1.41423l4.74624-4.74624c.39048-.39053 1.02368-.39053 1.41418 0zM1.97225 14.0277c1.4285 1.4285 3.74455 1.4285 5.17304 0l2.1479-2.1479c.39053-.3905.39053-1.0237 0-1.4142-.39052-.3906-1.02368-.3906-1.41421 0l-2.1479 2.1479c-.64745.6474-1.69717.6474-2.34462 0-.64744-.6475-.64744-1.6972 0-2.3446l2.14791-2.14795c.39052-.39053.39052-1.02369 0-1.41422-.39053-.39052-1.02369-.39052-1.41422 0l-2.1479 2.14791c-1.4285 1.42846-1.4285 3.74456 0 5.17306z"></path></svg>