<svg xmlns="http://www.w3.org/2000/svg" width="16" height="16" viewBox="0 0 16 16" class="base-0-2-1" ie-style=""><path fill-rule="evenodd" d="M13.504 13.996H2.5c-.275 0-.498-.224-.498-.498 0-.275.223-.498.498-.498h11.004c.275 0 .498.223.498.498 0 .274-.223.498-.498.498zm0-1.999H7.5c-.275 0-.498-.223-.498-.499 0-.275.223-.498.498-.498h6.004c.275 0 .498.223.498.498 0 .276-.223.499-.498.499zm-8.292-5.9c.082-.059.183-.094.292-.094.275 0 .499.223.499.499v4.001c0 .275-.224.499-.499.499-.104 0-.201-.032-.281-.087v.001L2.247 8.934c-.016-.01-.032-.021-.048-.032C2.078 8.811 2 8.666 2 8.503c0-.161.077-.305.195-.396h.001c.017-.014.036-.026.055-.037l2.961-1.973zm8.288 3.907H7.504c-.277 0-.502-.225-.502-.502S7.227 9 7.504 9H13.5c.277 0 .502.225.502.502s-.225.502-.502.502zm.004-2.008H7.5c-.275 0-.498-.224-.498-.498 0-.275.223-.498.498-.498h6.004c.275 0 .498.223.498.498 0 .274-.223.498-.498.498zM13.5 6.004H7.504c-.277 0-.502-.225-.502-.502S7.227 5 7.504 5H13.5c.277 0 .502.225.502.502s-.225.502-.502.502zm-.003-1.993H2.507c-.279 0-.505-.227-.505-.506S2.228 3 2.507 3h10.99c.279 0 .505.226.505.505s-.226.506-.505.506z"></path></svg>