<svg width="16" height="16" viewBox="0 0 16 16" xmlns="http://www.w3.org/2000/svg" ie-style=""><path fill-rule="evenodd" clip-rule="evenodd" d="M3 1C1.34315 1 0 2.34315 0 4v9c0 1.6569 1.34315 3 3 3h10c1.6569 0 3-1.3431 3-3V4c0-1.65685-1.3431-3-3-3H3zM2 4c0-.55228.44772-1 1-1h10c.5523 0 1 .44772 1 1v9c0 .5523-.4477 1-1 1H3c-.55228 0-1-.4477-1-1V4zm10 1.5c0-.82771-.6723-1.5-1.5-1.5C9.67229 4 9 4.67229 9 5.5S9.67229 7 10.5 7c.8277 0 1.5-.67229 1.5-1.5zM4.74104 12c-.77179 0-1.25266-.8372-.86378-1.5039l1.75896-3.01534c.38588-.6615 1.34168-.6615 1.72756 0L8.6 9.6l.64742-.73991c.39842-.45533 1.10678-.45533 1.50518 0l1.2962 1.48141c.5658.6466.1066 1.6585-.7526 1.6585H4.74104z"></path></svg>