<svg xmlns="http://www.w3.org/2000/svg" width="16" height="16" viewBox="0 0 16 16" class="base-0-2-1" ie-style=""><path fill-rule="evenodd" d="M3.55505 10.276c-.279 0-.407.108-.494.212-.139.166-.287.246-.287.246h-.001c-.076.045-.165.071-.26.071-.283 0-.513-.23-.513-.513v-.098c0-.02.001-.04.004-.06.014-.163.093-.621.509-.88.415-.259.873-.254.873-.254h.476c.472-.002 1.456.214 1.456 1.465 0 1.741-1.671 1.528-1.818 2.257h1.195c.352 0 .638.287.638.639 0 .353-.286.639-.638.639h-2.056c-.337 0-.614-.262-.637-.593-.001-.009-.002-.018-.002-.026 0-.417-.021-1.3.833-1.881.574-.39 1.185-.539 1.185-.932 0-.178-.095-.287-.351-.292h-.112zm9.696.724c.414 0 .749.335.749.749 0 .413-.335.748-.749.748h-5.502c-.414 0-.749-.335-.749-.748 0-.414.335-.749.749-.749h5.502zm-10.017-5.245V3.256h-.447c-.347 0-.628-.281-.628-.628s.281-.628.628-.628h1.073c.345 0 .626.28.626.626v3.129h.456c.344 0 .623.279.623.622 0 .344-.279.623-.623.623h-2.161c-.343 0-.622-.279-.622-.623 0-.343.279-.622.622-.622h.453zM13.25105 4c.414 0 .749.335.749.749 0 .413-.335.748-.749.748h-5.502c-.414 0-.749-.335-.749-.748 0-.414.335-.749.749-.749h5.502z"></path></svg>