<svg xmlns="http://www.w3.org/2000/svg" width="16" height="16" viewBox="0 0 16 16" class="base-0-2-1" ie-style=""><path fill-rule="evenodd" d="M7.508 12.394h2.689c.443 0 .803.359.803.803 0 .443-.36.803-.803.803H7.5C4.464 14 2 12.036 2 9s2.457-5 5.492-5H9V2.599C9 2.268 9.26 2 9.581 2c.127 0 .244.042.34.113l3.447 2.368c.023.013.044.028.064.044h.001c.138.11.227.282.227.476 0 .195-.091.369-.232.478-.018.014-.036.027-.056.039L9.908 7.896c-.093.066-.206.104-.327.104C9.26 8 9 7.732 9 7.401V5.606H7.5C5.351 5.607 3.614 6.851 3.614 9s1.745 3.394 3.894 3.394z"></path></svg>