<svg xmlns="http://www.w3.org/2000/svg" width="16" height="16" viewBox="0 0 16 16" class="base-0-2-1" ie-style=""><path fill-rule="evenodd" d="M8.16 14H5.463c-.443 0-.803-.36-.803-.803 0-.444.36-.803.803-.803h2.689c2.149 0 3.894-1.245 3.894-3.394S10.309 5.607 8.16 5.606h-1.5v1.795c0 .331-.26.599-.581.599-.121 0-.234-.038-.327-.104L2.288 5.518c-.02-.012-.038-.025-.056-.039C2.091 5.37 2 5.196 2 5.001c0-.194.089-.366.227-.476h.001c.02-.016.041-.031.064-.044l3.447-2.368c.096-.071.213-.113.34-.113.321 0 .581.268.581.599V4h1.508c3.035 0 5.492 1.964 5.492 5 0 3.035-2.464 5-5.5 5z"></path></svg>