<svg width="16" height="16" viewBox="0 0 16 16" xmlns="http://www.w3.org/2000/svg" class="base-0-2-1" ie-style=""><path fill-rule="evenodd" clip-rule="evenodd" d="M5.15786 7.67063L2.95349 9.875 6.07849 13h.09314l2.1578-2.1578-3.17157-3.17157zm1.41421-1.41421l3.17158 3.17157L13.0466 6.125 9.87506 2.95343 6.57207 6.25642zM4.71085 14.4608c.50063.5006 1.20065.6804 1.84445.5392H13c.5523 0 1-.4477 1-1s-.4477-1-1-1H9.00006l5.46074-5.46078c.7811-.78105.7811-2.04738 0-2.82843l-3.1715-3.17157c-.7811-.78105-2.0474-.78105-2.82845 0L1.53928 8.46079c-.78105.78105-.78105 2.04741 0 2.82841l3.17157 3.1716z"></path></svg>