<svg xmlns="http://www.w3.org/2000/svg" width="16" height="16" viewBox="0 0 16 16"  ie-style="">
    <g fill-rule="evenodd">
        <path  d="M14 13.997c0-.552-.448-1-1-1H3c-.552 0-1 .448-1 1s.448 1 1 1h10c.552 0 1-.448 1-1z"/>
        <path d="M7.983 3.049c.296-.013.584.151.715.437l3.437 7.519c.172.376.006.82-.37.992-.376.172-.82.006-.992-.37l-.515-1.126H5.752c-.015 0-.029-.001-.043-.001l-.516 1.127c-.171.376-.616.542-.992.37-.376-.172-.542-.616-.37-.992l3.437-7.519c.131-.286.419-.45.715-.437zM6.396 8.997h3.175L7.983 5.524 6.396 8.997z"/>
    </g>
</svg>