<svg xmlns="http://www.w3.org/2000/svg" width="16" height="16" viewBox="0 0 16 16" class="base-0-2-1" ie-style=""><path fill-rule="evenodd" d="M11.502 13c.275 0 .498.223.498.498 0 .274-.223.498-.498.498H2.498c-.275 0-.498-.224-.498-.498 0-.275.223-.498.498-.498h9.004zm-4-2c.275 0 .498.223.498.498 0 .276-.223.499-.498.499H2.498c-.275 0-.498-.223-.498-.499 0-.275.223-.498.498-.498h5.004zm1.996-2c.277 0 .502.225.502.502s-.225.502-.502.502H2.502c-.277 0-.502-.225-.502-.502S2.225 9 2.502 9h6.996zm2.004-2c.275 0 .498.223.498.498 0 .274-.223.498-.498.498H2.498c-.275 0-.498-.224-.498-.498C2 7.223 2.223 7 2.498 7h9.004zM9.498 5c.277 0 .502.225.502.502s-.225.502-.502.502H2.502c-.277 0-.502-.225-.502-.502S2.225 5 2.502 5h6.996zm3.997-2c.279 0 .505.226.505.505s-.226.506-.505.506H2.505c-.279 0-.505-.227-.505-.506S2.226 3 2.505 3h10.99z"></path></svg>