<svg width="12" height="14" viewBox="0 0 12 14" fill="none" xmlns="http://www.w3.org/2000/svg">
<path fill-rule="evenodd" clip-rule="evenodd" d="M2.5 0H7C9.48528 0 11.5 2.01472 11.5 4.5C11.5 6.98528 9.48528 9 7 9H3.5V10H8.5C9.05228 10 9.5 10.4477 9.5 11C9.5 11.5523 9.05228 12 8.5 12H3.5V13C3.5 13.5523 3.05228 14 2.5 14C1.94772 14 1.5 13.5523 1.5 13V12C0.947715 12 0.5 11.5523 0.5 11C0.5 10.4477 0.947715 10 1.5 10V9C0.947715 9 0.5 8.55229 0.5 8C0.5 7.44772 0.947715 7 1.5 7V1C1.5 0.447715 1.94772 0 2.5 0ZM3.5 7H7C8.38071 7 9.5 5.88071 9.5 4.5C9.5 3.11929 8.38071 2 7 2H3.5V7Z" fill="#24C780"/>
</svg>
