<svg width="14" height="14" viewBox="0 0 14 14" fill="none" xmlns="http://www.w3.org/2000/svg">
<path fill-rule="evenodd" clip-rule="evenodd" d="M7.38268 0.0761497C7.75636 0.230931 8 0.595567 8 1.00003V3.50003H9C11.7614 3.50003 14 5.73861 14 8.50003V13C14 13.5523 13.5523 14 13 14C12.4477 14 12 13.5523 12 13C12 11.6193 10.8807 10.5 9.5 10.5H8V13C8 13.4045 7.75636 13.7691 7.38268 13.9239C7.00901 14.0787 6.57889 13.9931 6.29289 13.7071L0.292893 7.70714C-0.0976311 7.31661 -0.0976311 6.68345 0.292893 6.29292L6.29289 0.292922C6.57889 0.00692445 7.00901 -0.0786313 7.38268 0.0761497ZM12 9.2578V8.50003C12 6.84318 10.6569 5.50003 9 5.50003H7C6.44772 5.50003 6 5.05231 6 4.50003V3.41424L2.41421 7.00003L6 10.5858V9.50003C6 8.94774 6.44772 8.50003 7 8.50003H9.5C10.4251 8.50003 11.285 8.77917 12 9.2578Z" fill="#333333"/>
</svg>
