<svg width="16" height="14" viewBox="0 0 16 14" fill="none" xmlns="http://www.w3.org/2000/svg">
<path fill-rule="evenodd" clip-rule="evenodd" d="M3 0C1.18017 0 0 1.70069 0 3.4C0 4.0099 0.185849 4.55632 0.363687 4.98928C0.438326 5.17099 0.520414 5.35275 0.593737 5.51511L0.635566 5.60785C0.722551 5.80124 0.795437 5.96812 0.854107 6.12689C0.942707 6.36664 1 6.66561 1 7C1 7.3344 0.942707 7.63336 0.854108 7.87311C0.795437 8.03188 0.722551 8.19876 0.635566 8.39215L0.593739 8.48489L0.593735 8.4849C0.520412 8.64725 0.438325 8.82901 0.363687 9.01072C0.185849 9.44368 0 9.9901 0 10.6C0 12.2993 1.18017 14 3 14H13C14.8198 14 16 12.2993 16 10.6C16 9.9901 15.8142 9.44368 15.6363 9.01072C15.5617 8.82902 15.4796 8.64727 15.4063 8.48493L15.4063 8.4849L15.3644 8.39215C15.2774 8.19876 15.2046 8.03188 15.1459 7.87311C15.0573 7.63336 15 7.3344 15 7C15 6.66561 15.0573 6.36664 15.1459 6.12688C15.2046 5.96812 15.2774 5.80124 15.3644 5.60785L15.4063 5.51512C15.4796 5.35276 15.5617 5.17099 15.6363 4.98928C15.8142 4.55632 16 4.0099 16 3.4C16 1.70069 14.8198 0 13 0H3ZM2 3.4C2 2.44834 2.61069 2 3 2L9 2V3C9 3.55228 9.44771 4 10 4C10.5523 4 11 3.55228 11 3V2L13 2C13.3893 2 14 2.44834 14 3.4C14 3.61603 13.9329 3.87237 13.7863 4.22938C13.7259 4.37632 13.6606 4.52104 13.5875 4.683L13.5404 4.78745C13.4521 4.98393 13.3544 5.20502 13.2699 5.43362C13.0943 5.90873 13 6.44375 13 7C13 7.55625 13.0943 8.09127 13.2699 8.56638C13.3544 8.79498 13.4521 9.01607 13.5404 9.21255L13.5875 9.31696L13.5875 9.31704C13.6606 9.47899 13.7259 9.62369 13.7863 9.77062C13.9329 10.1276 14 10.384 14 10.6C14 11.5517 13.3893 12 13 12H11V11C11 10.4477 10.5523 10 10 10C9.44771 10 9 10.4477 9 11V12H3C2.61069 12 2 11.5517 2 10.6C2 10.384 2.06706 10.1276 2.2137 9.77062C2.27406 9.62367 2.33938 9.47895 2.41248 9.31698L2.45956 9.21255C2.54793 9.01607 2.64563 8.79497 2.73011 8.56638C2.90569 8.09126 3 7.55625 3 7C3 6.44375 2.90569 5.90873 2.73011 5.43362C2.64563 5.20503 2.54793 4.98393 2.45956 4.78745L2.41247 4.68301C2.33937 4.52104 2.27406 4.37633 2.2137 4.22938C2.06706 3.87237 2 3.61603 2 3.4ZM10 5C9.44771 5 9 5.44772 9 6V8C9 8.55228 9.44771 9 10 9C10.5523 9 11 8.55228 11 8V6C11 5.44772 10.5523 5 10 5Z" fill="#3BBAFE"/>
</svg>
